<svg width="15" height="14" viewBox="0 0 15 14" fill="none" xmlns="http://www.w3.org/2000/svg">
<path fill-rule="evenodd" clip-rule="evenodd" d="M13.1904 4.14319C13.1904 2.87842 12.0672 1.78597 10.5957 1.78577H4.40527C2.93353 1.78577 1.80957 2.8783 1.80957 4.14319V9.85706C1.80957 11.1219 2.93353 12.2145 4.40527 12.2145H10.5957C12.0672 12.2143 13.1904 11.1218 13.1904 9.85706V4.14319ZM14.1904 9.85706C14.1904 11.7479 12.5427 13.2143 10.5957 13.2145H4.40527C2.45811 13.2145 0.80957 11.7481 0.80957 9.85706V4.14319C0.80957 2.25216 2.45811 0.785767 4.40527 0.785767H10.5957C12.5427 0.785976 14.1904 2.2523 14.1904 4.14319V9.85706ZM6.17075 4.49517C6.72252 4.23099 7.34739 4.13524 7.95786 4.2188C8.58071 4.30406 9.16323 4.57239 9.61704 4.99126C10.0714 5.41069 10.3731 5.96016 10.4696 6.5606C10.5642 7.14948 10.455 7.74917 10.161 8.27251C9.86719 8.79517 9.40587 9.21269 8.85044 9.47076C8.29554 9.72846 7.66964 9.81702 7.0604 9.72661C6.45078 9.63607 5.8813 9.36974 5.43638 8.95904C4.99098 8.54786 4.69208 8.01122 4.5897 7.42388C4.48731 6.83614 4.5885 6.23501 4.87583 5.70806C5.16277 5.18185 5.6186 4.75963 6.17075 4.49517ZM7.82212 5.21001C7.40236 5.15257 6.97512 5.21899 6.60239 5.39751C6.23005 5.57586 5.93515 5.85403 5.75376 6.18658C5.57289 6.51829 5.51215 6.89064 5.57505 7.25201C5.63813 7.61388 5.82407 7.95499 6.11509 8.22368C6.40673 8.49289 6.78807 8.67515 7.20689 8.73736C7.62578 8.79958 8.05423 8.7379 8.42954 8.56353C8.80444 8.38933 9.10296 8.11396 9.28892 7.78326C9.47443 7.45323 9.54044 7.08088 9.48228 6.7188C9.4228 6.34926 9.23513 6.00058 8.93833 5.72661C8.64083 5.45201 8.25026 5.26862 7.82212 5.21001ZM11.4107 3.8572C11.4107 3.58105 11.1868 3.3572 10.9107 3.3572H10.9048C10.6287 3.3572 10.4048 3.58105 10.4048 3.8572C10.4048 4.13334 10.6287 4.3572 10.9048 4.3572H10.9107C11.1868 4.3572 11.4107 4.13334 11.4107 3.8572Z" fill="#2B304E"/>
</svg>
