<svg width="19" height="14" viewBox="0 0 19 14" fill="none" xmlns="http://www.w3.org/2000/svg">
<path d="M2.97168 0.5V4.53027C3.51256 4.21642 4.20767 3.99902 5.03906 3.99902C5.96911 3.99905 6.90229 4.26906 7.60938 4.89941C8.32649 5.53881 8.75684 6.50079 8.75684 7.76758V13.5H6.28418V7.96582C6.28418 7.29977 6.09921 6.89798 5.86035 6.66211C5.61945 6.42423 5.25475 6.28711 4.76465 6.28711C4.29768 6.2872 3.84889 6.42312 3.52539 6.69824C3.21546 6.96184 2.97168 7.39336 2.97168 8.09766V13.5H0.5V0.5H2.97168ZM12.7158 0.5V4.5293C13.2565 4.21573 13.9514 3.99908 14.7822 3.99902C15.7122 3.99902 16.6454 4.26919 17.3525 4.89941C18.0697 5.53881 18.5 6.50079 18.5 7.76758V13.5H16.0283V7.96582C16.0283 7.29975 15.8424 6.89798 15.6035 6.66211C15.3626 6.42438 14.9987 6.28712 14.5088 6.28711C14.0417 6.28711 13.5922 6.42304 13.2686 6.69824C12.9588 6.96187 12.7158 7.39358 12.7158 8.09766V13.5H10.2432V0.5H12.7158Z" stroke="#2B304E"/>
</svg>
