<svg width="17" height="14" viewBox="0 0 17 14" fill="none" xmlns="http://www.w3.org/2000/svg">
<g clip-path="url(#clip0_376_931)">
<path d="M15.5813 2.99284C15.4983 2.6347 15.3295 2.30656 15.0918 2.04156C14.854 1.77655 14.5558 1.58408 14.2273 1.48357C13.0269 1.16663 8.22527 1.16663 8.22527 1.16663C8.22527 1.16663 3.42364 1.16663 2.22324 1.51376C1.89469 1.61426 1.5965 1.80674 1.35877 2.07174C1.12104 2.33674 0.952193 2.66489 0.86929 3.02303C0.649597 4.34029 0.542134 5.67656 0.548251 7.01505C0.540419 8.36362 0.64789 9.71008 0.86929 11.0373C0.960687 11.3843 1.13331 11.6999 1.37049 11.9537C1.60767 12.2076 1.90137 12.3909 2.22324 12.4862C3.42364 12.8333 8.22527 12.8333 8.22527 12.8333C8.22527 12.8333 13.0269 12.8333 14.2273 12.4862C14.5558 12.3857 14.854 12.1932 15.0918 11.9282C15.3295 11.6632 15.4983 11.335 15.5813 10.9769C15.7993 9.66955 15.9067 8.34346 15.9023 7.01505C15.9101 5.66648 15.8027 4.32002 15.5813 2.99284V2.99284Z" stroke="#2B304E" stroke-linecap="round" stroke-linejoin="round"/>
<path d="M6.58105 9.33329L10.9682 6.99996L6.58105 4.66663V9.33329Z" stroke="#2B304E" stroke-linecap="round" stroke-linejoin="round"/>
</g>
<defs>
<clipPath id="clip0_376_931">
<rect width="17" height="14" fill="white"/>
</clipPath>
</defs>
</svg>
