<svg width="15" height="14" viewBox="0 0 15 14" fill="none" xmlns="http://www.w3.org/2000/svg">
<path fill-rule="evenodd" clip-rule="evenodd" d="M2.54785 1.80005C2.97024 1.80015 3.28613 2.12831 3.28613 2.50024C3.28602 2.87209 2.97017 3.20034 2.54785 3.20044C2.12544 3.20044 1.80968 2.87215 1.80957 2.50024C1.80957 2.12826 2.12537 1.80005 2.54785 1.80005ZM2.54785 4.20044C3.49278 4.20034 4.28602 3.45359 4.28613 2.50024C4.28613 1.54681 3.49285 0.800147 2.54785 0.800049C1.60277 0.800049 0.80957 1.54675 0.80957 2.50024C0.809679 3.45365 1.60284 4.20044 2.54785 4.20044ZM13.1907 8.49966C13.1906 7.68279 12.8561 6.89569 12.2551 6.31313C11.6534 5.72997 10.8333 5.40005 9.97582 5.40005C9.11854 5.40016 8.29908 5.73007 7.6975 6.31313C7.09644 6.89569 6.76206 7.68276 6.76195 8.49966V12.1999H8.23851V8.49966C8.23862 8.0438 8.42565 7.61006 8.75316 7.29263C9.08012 6.97579 9.52001 6.80055 9.97582 6.80044C10.4318 6.80044 10.8724 6.97565 11.1995 7.29263C11.527 7.61006 11.714 8.0438 11.7141 8.49966V12.1999H13.1907V8.49966ZM14.1907 12.6999C14.1907 12.9759 13.9667 13.1998 13.6907 13.1999H11.2141C10.9381 13.1997 10.7141 12.9759 10.7141 12.6999V8.49966C10.714 8.31934 10.6407 8.14285 10.5041 8.0104C10.3668 7.87732 10.1765 7.80044 9.97582 7.80044C9.77527 7.80055 9.58569 7.87741 9.44847 8.0104C9.31184 8.14286 9.23862 8.31931 9.23851 8.49966V12.6999C9.23851 12.9759 9.01449 13.1997 8.73851 13.1999H6.26195C5.98581 13.1999 5.76195 12.976 5.76195 12.6999V8.49966C5.76206 7.40728 6.2103 6.36288 7.00219 5.59536C7.79351 4.82849 8.86332 4.40016 9.97582 4.40005C11.0885 4.40005 12.159 4.82835 12.9504 5.59536C13.7423 6.36288 14.1906 7.40728 14.1907 8.49966V12.6999ZM3.78613 5.00005C4.0621 5.00025 4.28613 5.22403 4.28613 5.50005V12.7002C4.28603 12.9762 4.06204 13.2 3.78613 13.2002H1.30957C1.03349 13.2002 0.809675 12.9763 0.80957 12.7002V5.50005C0.80957 5.22391 1.03343 5.00005 1.30957 5.00005H3.78613ZM1.80957 12.2002H3.28613V6.00005H1.80957V12.2002Z" fill="#2B304E"/>
</svg>
