<svg width="14" height="14" viewBox="0 0 14 14" fill="none" xmlns="http://www.w3.org/2000/svg">
<path d="M13.4163 1.75001C12.8577 2.14403 12.2392 2.4454 11.5847 2.64251C11.2334 2.23855 10.7665 1.95224 10.2471 1.8223C9.72777 1.69235 9.18105 1.72504 8.68089 1.91594C8.18073 2.10684 7.75127 2.44674 7.45058 2.88967C7.1499 3.33261 6.9925 3.8572 6.99967 4.39251V4.97584C5.97454 5.00242 4.95875 4.77506 4.04276 4.31402C3.12678 3.85297 2.33903 3.17254 1.74967 2.33334C1.74967 2.33334 -0.583659 7.58334 4.66634 9.91667C3.46498 10.7322 2.03385 11.141 0.583008 11.0833C5.83301 14 12.2497 11.0833 12.2497 4.37501C12.2491 4.21252 12.2335 4.05044 12.203 3.89084C12.7984 3.30371 13.2185 2.56242 13.4163 1.75001V1.75001Z" stroke="#2B304E" stroke-linecap="round" stroke-linejoin="round"/>
</svg>
